<svg width="20" height="20" viewBox="0 0 20 20" fill="none" xmlns="http://www.w3.org/2000/svg">
<path d="M13.1699 15.6975C13.0707 15.6976 12.9737 15.6683 12.8912 15.6133C12.8087 15.5582 12.7443 15.48 12.7064 15.3883C12.6684 15.2967 12.6585 15.1959 12.6779 15.0986C12.6973 15.0013 12.7451 14.912 12.8153 14.842L17.3155 10.3417H1.47082C1.34325 10.3335 1.22358 10.2771 1.13612 10.1838C1.04867 10.0906 1 9.96755 1 9.83972C1 9.71188 1.04867 9.58884 1.13612 9.4956C1.22358 9.40236 1.34325 9.34592 1.47082 9.33774H17.2949L12.8153 4.85603C12.7212 4.76199 12.6684 4.63444 12.6684 4.50145C12.6684 4.36846 12.7212 4.24091 12.8153 4.14687C12.9093 4.05283 13.0369 4 13.1699 4C13.3029 4 13.4304 4.05283 13.5244 4.14687L18.8534 9.48411C18.9008 9.53015 18.9381 9.58563 18.9627 9.64697C18.9864 9.70526 18.999 9.7675 18.9998 9.83044V9.84899C19.0017 9.9166 18.9898 9.98389 18.9646 10.0467C18.9394 10.1094 18.9016 10.1664 18.8534 10.2139L13.5244 15.5511C13.4302 15.6448 13.3027 15.6974 13.1699 15.6975Z" fill="black"/>
</svg>
