<svg width="15" height="16" viewBox="0 0 15 16" fill="none" xmlns="http://www.w3.org/2000/svg">
<path d="M7.50408 11.75C7.36589 11.7499 7.2334 11.6935 7.13575 11.5931L0.915892 5.176C0.864683 5.12704 0.823609 5.068 0.795122 5.00241C0.766634 4.93681 0.751316 4.866 0.750081 4.7942C0.748846 4.72239 0.76172 4.65107 0.787935 4.58448C0.814149 4.5179 0.853167 4.45741 0.902661 4.40663C0.952155 4.35585 1.01111 4.31582 1.07601 4.28892C1.14091 4.26202 1.21043 4.24882 1.28041 4.25008C1.3504 4.25135 1.41941 4.26707 1.48335 4.29629C1.54729 4.32552 1.60483 4.36766 1.65255 4.4202L7.53882 10.4523L13.4598 4.37742C13.5614 4.31466 13.6808 4.2893 13.7983 4.30551C13.9158 4.32173 14.0244 4.37855 14.1061 4.46661C14.1879 4.55467 14.238 4.6687 14.2481 4.78989C14.2582 4.91107 14.2278 5.03218 14.1618 5.13322L7.8724 11.586C7.82462 11.637 7.76747 11.6777 7.70425 11.7059C7.64102 11.734 7.57299 11.749 7.50408 11.75Z" fill="#1DA7AF"/>
</svg>
