<svg viewBox="0 0 15 15" fill="none" xmlns="http://www.w3.org/2000/svg">
<path d="M7.50408 3.75C7.36589 3.75012 7.2334 3.80655 7.13575 3.90686L0.915892 10.324C0.864683 10.373 0.823609 10.432 0.795122 10.4976C0.766634 10.5632 0.751316 10.634 0.750081 10.7058C0.748846 10.7776 0.76172 10.8489 0.787935 10.9155C0.814149 10.9821 0.853167 11.0426 0.902661 11.0934C0.952155 11.1442 1.01111 11.1842 1.07601 11.2111C1.14091 11.238 1.21043 11.2512 1.28041 11.2499C1.3504 11.2486 1.41941 11.2329 1.48335 11.2037C1.54729 11.1745 1.60483 11.1323 1.65255 11.0798L7.53882 5.04769L13.4598 11.1226C13.5614 11.1853 13.6808 11.2107 13.7983 11.1945C13.9158 11.1783 14.0244 11.1214 14.1061 11.0334C14.1879 10.9453 14.238 10.8313 14.2481 10.7101C14.2582 10.5889 14.2278 10.4678 14.1618 10.3668L7.8724 3.91399C7.82462 3.86303 7.76747 3.8223 7.70425 3.79415C7.64102 3.766 7.57299 3.75099 7.50408 3.75Z" fill="#333640"/>
</svg>
