<svg viewBox="0 0 10 10" fill="none" xmlns="http://www.w3.org/2000/svg">
<path d="M7.5 4.99728C7.49992 5.08941 7.4623 5.17773 7.39542 5.24283L3.11733 9.38941C3.08469 9.42354 3.04534 9.45093 3.0016 9.46992C2.95787 9.48891 2.91067 9.49912 2.8628 9.49995C2.81493 9.50077 2.76738 9.49219 2.72299 9.47471C2.6786 9.45723 2.63827 9.43122 2.60442 9.39823C2.57057 9.36523 2.54388 9.32593 2.52595 9.28266C2.50802 9.23939 2.49921 9.19305 2.50006 9.14639C2.5009 9.09974 2.51138 9.05372 2.53086 9.0111C2.55035 8.96848 2.57844 8.93011 2.61347 8.8983L6.63487 4.97412L2.58495 1.02677C2.54311 0.959066 2.5262 0.879486 2.53701 0.801158C2.54782 0.722829 2.5857 0.650432 2.64441 0.595913C2.70311 0.541393 2.77913 0.508008 2.85992 0.501267C2.94072 0.494525 3.02145 0.51483 3.08881 0.55883L7.39067 4.75173C7.42464 4.78358 7.4518 4.82169 7.47057 4.86383C7.48933 4.90598 7.49934 4.95134 7.5 4.99728Z" fill="black"/>
</svg>
