<svg viewBox="0 0 30 30" fill="none" xmlns="http://www.w3.org/2000/svg">
<g clip-path="url(#clip0)">
<path d="M27.15 9.30816H21.516C22.0978 8.44247 22.323 7.38559 22.1446 6.35792C21.9662 5.33024 21.3979 4.41112 20.5583 3.79222C19.7187 3.17332 18.6726 2.90243 17.6382 3.03604C16.6037 3.16965 15.6608 3.69744 15.006 4.50936L15 4.51656C14.346 3.70035 13.4014 3.16901 12.3642 3.03392C11.327 2.89882 10.2778 3.17046 9.43653 3.79189C8.59523 4.41333 8.02715 5.3363 7.85137 6.36735C7.67558 7.3984 7.90574 8.45747 8.4936 9.32256L8.484 9.30816H2.85C2.49215 9.30879 2.14914 9.45123 1.89611 9.70426C1.64307 9.9573 1.50063 10.3003 1.5 10.6582V28.7458C1.5 29.4418 2.106 30.0082 2.85 30.0082H27.15C27.894 30.0082 28.5 29.4418 28.5 28.7458V10.6582C28.4994 10.3003 28.3569 9.9573 28.1039 9.70426C27.8509 9.45123 27.5078 9.30879 27.15 9.30816ZM18.15 4.80816C18.7467 4.80816 19.319 5.04521 19.741 5.46717C20.1629 5.88912 20.4 6.46142 20.4 7.05816C20.4 7.65489 20.1629 8.22719 19.741 8.64915C19.319 9.0711 18.7467 9.30816 18.15 9.30816H15.9V7.05816C15.9006 6.46161 16.1379 5.88969 16.5597 5.46787C16.9815 5.04605 17.5535 4.80879 18.15 4.80816ZM9.6 7.05816C9.6 6.46142 9.83705 5.88912 10.259 5.46717C10.681 5.04521 11.2533 4.80816 11.85 4.80816C12.4467 4.80816 13.019 5.04521 13.441 5.46717C13.8629 5.88912 14.1 6.46142 14.1 7.05816V9.30816H11.85C11.2535 9.30752 10.6815 9.07026 10.2597 8.64844C9.83789 8.22663 9.60064 7.6547 9.6 7.05816ZM3.3 28.2082V16.5082H11.4V28.2082H3.3ZM13.2 28.2082V16.5082H16.8V28.2082H13.2ZM26.7 28.2082H18.6V16.5082H26.7V28.2082ZM3.3 14.7082V11.1082H26.7V14.7082H3.3Z" fill="#B3B3B3"/>
</g>
<defs>
<clipPath id="clip0">
<path d="M0 0H30V30H0V0Z" fill="white"/>
</clipPath>
</defs>
</svg>
