<svg width="20" height="20" viewBox="0 0 20 20" fill="none" xmlns="http://www.w3.org/2000/svg">
<path fill-rule="evenodd" clip-rule="evenodd" d="M1.32024 5H18.6792C18.8561 5 19 4.77547 19 4.49956C19 4.22365 18.8561 4 18.6792 4H1.32024C1.14393 4 1 4.22365 1 4.49956C1 4.77547 1.14393 5 1.32024 5ZM18.6792 9.21631H1.32024C1.14393 9.21631 1 9.44064 1 9.71631C1 9.99198 1.14393 10.2163 1.32024 10.2163H18.6792C18.8561 10.2163 19 9.99198 19 9.71631C19 9.44064 18.8561 9.21631 18.6792 9.21631ZM1.32024 14.4332H18.6792C18.8561 14.4332 19 14.6577 19 14.9336C19 15.2095 18.8561 15.4332 18.6792 15.4332H1.32024C1.14393 15.4332 1 15.2095 1 14.9336C1 14.6577 1.14389 14.4332 1.32024 14.4332Z" fill="black"/>
</svg>
