<svg width="24" height="24" viewBox="0 0 24 24" fill="none" xmlns="http://www.w3.org/2000/svg">
<path d="M22.0754 18.8427L20.7305 4.51506C20.7233 4.48037 20.7134 4.44631 20.7009 4.41317C20.6932 4.37185 20.6816 4.33136 20.6662 4.29224C20.6413 4.24108 20.6103 4.19313 20.5738 4.14942C20.5601 4.12555 20.545 4.1025 20.5286 4.08038L17.9101 1.41424C17.8436 1.34648 17.7644 1.29263 17.6769 1.25585C17.5894 1.21906 17.4955 1.20008 17.4006 1.2H5.89863C5.80375 1.20008 5.70982 1.21906 5.62236 1.25585C5.53489 1.29263 5.45563 1.34648 5.38921 1.41424L2.77068 4.08038C2.75331 4.10232 2.73741 4.12538 2.72307 4.14942C2.68664 4.19313 2.65562 4.24108 2.63071 4.29224C2.61532 4.33136 2.60368 4.37185 2.59595 4.41317C2.58346 4.44631 2.57359 4.48037 2.56644 4.51506L1.22242 18.8294C1.16612 19.3289 1.21592 19.8346 1.36856 20.3136C1.52119 20.7925 1.77323 21.2338 2.10818 21.6086C2.44313 21.9834 2.85344 22.2833 3.31226 22.4886C3.77109 22.6939 4.2681 22.8 4.77076 22.8H18.5252C19.0267 22.8001 19.5227 22.6945 19.9807 22.4901C20.4388 22.2857 20.8486 21.9871 21.1836 21.6138C21.5185 21.2404 21.771 20.8007 21.9247 20.3232C22.0784 19.8458 22.1297 19.3413 22.0754 18.8427ZM6.1981 2.62781H17.1007L18.3181 3.86566H4.98072L6.1981 2.62781ZM20.1234 20.6566C19.9224 20.8813 19.6763 21.0611 19.401 21.1842C19.1258 21.3072 18.8276 21.3708 18.5261 21.3708H4.77267C4.46992 21.3708 4.1706 21.3067 3.89444 21.1826C3.61828 21.0585 3.37155 20.8774 3.17051 20.651C2.96947 20.4246 2.8187 20.1582 2.72811 19.8693C2.63753 19.5805 2.6092 19.2757 2.64499 18.975L3.93045 5.2949H19.3702L20.6557 18.9884C20.6895 19.2882 20.6595 19.5919 20.5678 19.8794C20.4761 20.1668 20.3246 20.4317 20.1234 20.6566ZM15.5281 6.85316V7.56731C15.5281 8.5964 15.1193 9.58334 14.3917 10.311C13.664 11.0387 12.6771 11.4475 11.648 11.4475C10.6189 11.4475 9.63194 11.0387 8.90426 10.311C8.17659 9.58334 7.76779 8.5964 7.76779 7.56731V6.85316C7.76779 6.66376 7.84303 6.48212 7.97695 6.34819C8.11088 6.21426 8.29253 6.13902 8.48193 6.13902C8.67133 6.13902 8.85298 6.21426 8.98691 6.34819C9.12083 6.48212 9.19607 6.66376 9.19607 6.85316V7.56731C9.19607 8.21759 9.4544 8.84124 9.91422 9.30106C10.374 9.76088 10.9977 10.0192 11.648 10.0192C12.2983 10.0192 12.9219 9.76088 13.3817 9.30106C13.8415 8.84124 14.0999 8.21759 14.0999 7.56731V6.85316C14.0999 6.66376 14.1751 6.48212 14.309 6.34819C14.443 6.21426 14.6246 6.13902 14.814 6.13902C15.0034 6.13902 15.1851 6.21426 15.319 6.34819C15.4529 6.48212 15.5281 6.66376 15.5281 6.85316Z" fill="#333640"/>
</svg>
