<svg width="24" height="24" viewBox="0 0 24 24" fill="none" xmlns="http://www.w3.org/2000/svg">
<path d="M19.8317 4.53934H15.7949V3.22896C15.7949 2.86262 15.7033 2.52446 15.5201 2.21448C15.337 1.9045 15.0904 1.65793 14.7804 1.47476C14.4704 1.29159 14.1323 1.2 13.7659 1.2H11.0606C10.8493 1.2 10.6379 1.23523 10.4266 1.30568C10.2152 1.37613 10.0285 1.47476 9.86651 1.60157C9.70448 1.72838 9.56005 1.8728 9.43324 2.03483C9.30643 2.19687 9.2078 2.38356 9.13735 2.59491C9.0669 2.80626 9.03168 3.01761 9.03168 3.22896V4.53934H4.95262C4.57219 4.53934 4.25164 4.66967 3.99097 4.93033C3.73031 5.191 3.59998 5.51155 3.59998 5.89198V21.4474C3.59998 21.8137 3.73031 22.1307 3.99097 22.3984C4.25164 22.6661 4.57219 22.8 4.95262 22.8H19.8317C20.2121 22.8 20.5327 22.6661 20.7933 22.3984C21.054 22.1307 21.1843 21.8137 21.1843 21.4474V5.89198C21.1843 5.51155 21.054 5.191 20.7933 4.93033C20.5327 4.66967 20.2121 4.53934 19.8317 4.53934ZM10.3843 3.22896C10.3843 3.04579 10.4512 2.88728 10.5851 2.75343C10.719 2.61957 10.8775 2.55264 11.0606 2.55264H13.7659C13.9491 2.55264 14.1076 2.61957 14.2415 2.75343C14.3753 2.88728 14.4422 3.04579 14.4422 3.22896V4.53934H10.3843V3.22896ZM19.8317 21.4474H4.95262V5.89198H9.03168V7.28689C9.03168 7.32916 9.03872 7.38904 9.05281 7.46654C9.0669 7.54403 9.12679 7.64618 9.23246 7.77299C9.33814 7.8998 9.49665 7.96321 9.708 7.96321C9.93344 7.96321 10.1025 7.90685 10.2152 7.79413C10.328 7.68141 10.3843 7.56869 10.3843 7.45597V5.89198H14.4422V7.35029L14.4739 7.50881L14.5691 7.72016L14.7698 7.88924L15.1186 7.96321C15.2454 7.96321 15.3546 7.93855 15.4462 7.88924C15.5377 7.83992 15.6047 7.78356 15.6469 7.72016C15.6892 7.65675 15.7209 7.58982 15.7421 7.51937C15.7632 7.44892 15.7808 7.39256 15.7949 7.35029V5.89198H19.8317V21.4474Z" fill="black"/>
</svg>
