<svg width="20" height="20" viewBox="0 0 20 20" fill="none" xmlns="http://www.w3.org/2000/svg">
<path d="M0 6C0 2.68629 2.68629 0 6 0H14C17.3137 0 20 2.68629 20 6V14C20 17.3137 17.3137 20 14 20H6C2.68629 20 0 17.3137 0 14V6Z" fill="#1DA7AF"/>
<path d="M6 1H14V-1H6V1ZM19 6V14H21V6H19ZM14 19H6V21H14V19ZM1 14V6H-1V14H1ZM6 19C3.23858 19 1 16.7614 1 14H-1C-1 17.866 2.13401 21 6 21V19ZM19 14C19 16.7614 16.7614 19 14 19V21C17.866 21 21 17.866 21 14H19ZM14 1C16.7614 1 19 3.23858 19 6H21C21 2.13401 17.866 -1 14 -1V1ZM6 -1C2.13401 -1 -1 2.13401 -1 6H1C1 3.23858 3.23858 1 6 1V-1Z" fill="#1DA7AF"/>
<g clip-path="url(#clip0)">
<path d="M15.967 5.33381L7.57046 13.9208L4.03304 10.3038L3.33334 11.0177L7.2206 14.9925L7.57046 15.3333L7.92031 14.992L16.6667 6.04877L15.967 5.33331V5.33381Z" fill="white"/>
</g>
<defs>
<clipPath id="clip0">
<path d="M3.33334 3.33331H16.6667V16.6666H3.33334V3.33331Z" fill="white"/>
</clipPath>
</defs>
</svg>
