<svg width="20" height="20" viewBox="0 0 20 20" fill="none" xmlns="http://www.w3.org/2000/svg">
<path d="M18.7798 1.16236C18.6906 1.08434 18.582 1.03192 18.4655 1.01066C18.3489 0.98939 18.2288 1.00008 18.1178 1.04159L1.42012 7.22587C1.29687 7.27337 1.19083 7.35696 1.11587 7.46571C1.04091 7.57447 1.00053 7.70332 1.00001 7.8354C0.999482 7.96749 1.03884 8.09665 1.11294 8.206C1.18703 8.31534 1.29241 8.39977 1.41528 8.44824L8.72054 11.2795L11.5518 18.5847C11.6003 18.7076 11.6847 18.8129 11.7941 18.887C11.9034 18.9611 12.0326 19.0005 12.1646 19C12.2967 18.9995 12.4256 18.9591 12.5343 18.8841C12.6431 18.8092 12.7267 18.7031 12.7742 18.5799L18.9585 1.88231C19.0049 1.75829 19.0126 1.62315 18.9807 1.49466C18.9488 1.36617 18.8787 1.25035 18.7798 1.1624V1.16236ZM17.2385 2.7616L12.1461 16.5023L9.83663 10.5403C9.80368 10.4546 9.75311 10.3768 9.68819 10.3119C9.62328 10.2469 9.54546 10.1964 9.45977 10.1634L3.49768 7.85397L17.2385 2.7616Z" fill="black"/>
</svg>
