<svg width="40" height="40" viewBox="0 0 40 40" fill="none" xmlns="http://www.w3.org/2000/svg">
<path d="M9.71429 23.4286C10.7023 23.4284 11.66 23.7695 12.4253 24.3943C13.1907 25.0191 13.7167 25.8891 13.9143 26.8571H26V9.71429H7.14286C6.23354 9.71429 5.36147 10.0755 4.71849 10.7185C4.07551 11.3615 3.71429 12.2335 3.71429 13.1429V26.8571H5.51429C5.71188 25.8891 6.23787 25.0191 7.00323 24.3943C7.76858 23.7695 8.7263 23.4284 9.71429 23.4286ZM9.71429 32C8.7263 32.0002 7.76858 31.659 7.00323 31.0343C6.23787 30.4095 5.71188 29.5395 5.51429 28.5714H2V13.1429C2 11.7789 2.54184 10.4708 3.50631 9.50631C4.47078 8.54184 5.77889 8 7.14286 8H26C26.4547 8 26.8907 8.18061 27.2122 8.5021C27.5337 8.82359 27.7143 9.25963 27.7143 9.71429V13.1429H32.8571L38 19.9674V28.5714H34.4857C34.289 29.5402 33.7634 30.4113 32.9979 31.0369C32.2325 31.6625 31.2743 32.0043 30.2857 32.0043C29.2971 32.0043 28.3389 31.6625 27.5735 31.0369C26.8081 30.4113 26.2824 29.5402 26.0857 28.5714H13.9143C13.7167 29.5395 13.1907 30.4095 12.4253 31.0343C11.66 31.659 10.7023 32.0002 9.71429 32ZM9.71429 25.1429C9.0323 25.1429 8.37825 25.4138 7.89601 25.896C7.41377 26.3782 7.14286 27.0323 7.14286 27.7143C7.14286 28.3963 7.41377 29.0503 7.89601 29.5326C8.37825 30.0148 9.0323 30.2857 9.71429 30.2857C10.3963 30.2857 11.0503 30.0148 11.5326 29.5326C12.0148 29.0503 12.2857 28.3963 12.2857 27.7143C12.2857 27.0323 12.0148 26.3782 11.5326 25.896C11.0503 25.4138 10.3963 25.1429 9.71429 25.1429ZM30.2857 23.4286C31.2737 23.4284 32.2314 23.7695 32.9968 24.3943C33.7621 25.0191 34.2881 25.8891 34.4857 26.8571H36.2857V20.5417L35.8777 20H27.7143V24.2857C28.4555 23.7282 29.3582 23.4273 30.2857 23.4286ZM30.2857 25.1429C29.6037 25.1429 28.9497 25.4138 28.4674 25.896C27.9852 26.3782 27.7143 27.0323 27.7143 27.7143C27.7143 28.3963 27.9852 29.0503 28.4674 29.5326C28.9497 30.0148 29.6037 30.2857 30.2857 30.2857C30.9677 30.2857 31.6218 30.0148 32.104 29.5326C32.5862 29.0503 32.8571 28.3963 32.8571 27.7143C32.8571 27.0323 32.5862 26.3782 32.104 25.896C31.6218 25.4138 30.9677 25.1429 30.2857 25.1429ZM27.7143 14.8571V18.2857H34.5869L32 14.8571H27.7143Z" fill="black"/>
</svg>
