<svg width="40" height="40" viewBox="0 0 40 40" fill="none" xmlns="http://www.w3.org/2000/svg">
<path d="M39.4014 11.0086H35.4592C34.395 11.0011 33.347 10.7467 32.3977 10.2656L25.7516 6.88063C24.6135 6.30177 23.3546 6.00003 22.0777 6H17.3581C16.7547 5.99951 16.1602 6.14657 15.6266 6.42836C15.093 6.71016 14.6364 7.11814 14.2965 7.61679L8.10458 8.49742L0.694874 7.67183C0.51773 7.65956 0.342702 7.71626 0.206398 7.83007C0.141348 7.8894 0.0893926 7.96166 0.0538531 8.04221C0.0183136 8.12277 -2.81178e-05 8.20986 3.23536e-08 8.2979V21.6381C3.23536e-08 21.8042 0.0659612 21.9634 0.183373 22.0808C0.300785 22.1982 0.46003 22.2642 0.626075 22.2642H1.87822V24.0323C1.87526 24.6045 2.0779 25.1588 2.44926 25.5941C4.60377 28.1165 7.40248 30.0069 10.547 31.0636C12.3696 31.6628 14.2768 31.9647 16.1954 31.958H16.6907L18.5277 33.7881C18.6203 33.883 18.7408 33.9457 18.8717 33.967C19.6364 34.0869 20.4093 34.1467 21.1834 34.1459C23.7192 34.1556 26.2124 33.4936 28.4093 32.2271C30.6063 30.9606 32.4286 29.1349 33.6911 26.9357C33.7352 26.8482 33.7582 26.7516 33.7582 26.6536C33.7582 26.5556 33.7352 26.459 33.6911 26.3715C33.6911 26.3027 33.6292 26.2339 33.5948 26.1651L39.601 23.8741C39.7182 23.8275 39.8188 23.7469 39.8899 23.6427C39.961 23.5385 39.9993 23.4154 40 23.2893V11.5934C39.9899 11.4393 39.9233 11.2943 39.8128 11.1863C39.7023 11.0784 39.5558 11.0151 39.4014 11.0086ZM10.9322 29.8528C7.99972 28.8735 5.38537 27.1219 3.36429 24.7822C3.18936 24.5717 3.09434 24.3061 3.09598 24.0323V22.2642H4.87788C5.56296 22.2627 6.24155 22.3968 6.87449 22.659C7.50742 22.9211 8.08216 23.3061 8.56553 23.7915L15.4455 30.6715C13.911 30.6035 12.3928 30.3281 10.9322 29.8528ZM30.7465 28.8001C30.3712 27.5482 29.8639 26.3397 29.2329 25.195C28.1417 23.2325 26.6953 21.4898 24.9673 20.0557C24.9027 20.0015 24.8281 19.9606 24.7477 19.9352C24.6672 19.9098 24.5826 19.9006 24.4986 19.9079C24.4146 19.9153 24.3328 19.9391 24.258 19.978C24.1832 20.017 24.1168 20.0702 24.0626 20.1348C24.0084 20.1994 23.9674 20.2741 23.9421 20.3545C23.9167 20.4349 23.9074 20.5196 23.9148 20.6036C23.9221 20.6876 23.946 20.7693 23.9849 20.8441C24.0238 20.919 24.0771 20.9854 24.1417 21.0396C25.7494 22.3687 27.0955 23.9855 28.1115 25.8074C28.8069 27.0524 29.3388 28.3821 29.6938 29.7633C29.1071 30.2795 28.4737 30.7401 27.8019 31.1393C27.4579 31.3388 27.1139 31.5177 26.763 31.676C26.645 30.6083 26.3666 29.5646 25.9374 28.58C25.1798 26.8402 23.9853 25.3258 22.4699 24.1837C22.3374 24.0848 22.1712 24.0423 22.0075 24.0655C21.8438 24.0887 21.6959 24.1757 21.5961 24.3075C21.4969 24.4411 21.4542 24.6084 21.4774 24.7733C21.5005 24.9381 21.5877 25.0871 21.72 25.1882C23.0718 26.1853 24.143 27.5148 24.8297 29.0478C25.258 30.0222 25.5185 31.0619 25.6003 32.1232C24.7088 32.4352 23.786 32.6498 22.8483 32.763C22.6408 31.6658 22.2046 30.6245 21.5681 29.707C20.9315 28.7896 20.1089 28.0164 19.1538 27.4379C19.0127 27.3604 18.8473 27.3402 18.6917 27.3814C18.5362 27.4226 18.4025 27.5222 18.3184 27.6594C18.2343 27.7966 18.2063 27.9609 18.2401 28.1182C18.274 28.2756 18.3671 28.4138 18.5002 28.5043C19.2848 28.9796 19.9637 29.6107 20.495 30.3585C21.0263 31.1063 21.3987 31.9551 21.5893 32.8524C20.8235 32.8712 20.0575 32.8298 19.2982 32.7286L17.4131 30.8435L9.5012 22.9315C8.89844 22.3182 8.17858 21.8323 7.38437 21.5025C6.59016 21.1728 5.7378 21.006 4.87788 21.012H1.25215V8.99278L8.0633 9.74957C8.11581 9.75649 8.16901 9.75649 8.22153 9.74957L13.3746 9.04782L12.8036 9.92845C12.4511 10.4609 12.299 11.101 12.3742 11.7351C12.4495 12.3691 12.7472 12.9559 13.2146 13.391C13.6819 13.8261 14.2884 14.0813 14.9262 14.1112C15.564 14.1411 16.1917 13.9437 16.6976 13.5542L18.3488 12.2952H21.259C23.6316 14.1664 25.7767 16.3092 27.6505 18.6797C29.5657 21.1155 31.1826 23.7717 32.4665 26.5917C31.9717 27.3858 31.3952 28.126 30.7465 28.8001ZM38.7754 22.8765L33.0857 25.0574C31.8587 22.5277 30.3691 20.1341 28.6412 17.9161C26.6636 15.3819 24.3858 13.0971 21.8576 11.1118C21.7453 11.0304 21.611 10.9848 21.4723 10.9811H18.7616V9.73581C18.7616 9.56977 18.6956 9.41052 18.5782 9.29311C18.4608 9.1757 18.3016 9.10974 18.1355 9.10974C17.9695 9.10974 17.8102 9.1757 17.6928 9.29311C17.5754 9.41052 17.5095 9.56977 17.5095 9.73581V11.3044L15.9408 12.5015C15.6688 12.6948 15.3383 12.7879 15.0054 12.765C14.6725 12.7422 14.3578 12.6049 14.1147 12.3763C13.8715 12.1478 13.715 11.8422 13.6717 11.5113C13.6283 11.1805 13.7008 10.8449 13.8768 10.5614L15.2872 8.35982C15.5111 8.01624 15.817 7.73382 16.1774 7.53804C16.5377 7.34226 16.9411 7.23928 17.3512 7.23839H22.0777C23.1518 7.23751 24.2107 7.49221 25.1668 7.98143L31.806 11.3664C32.9382 11.9413 34.1894 12.243 35.4592 12.247H38.7754V22.8765Z" fill="black"/>
</svg>
