<svg width="20" height="20" viewBox="0 0 20 20" fill="none" xmlns="http://www.w3.org/2000/svg">
<path d="M17.0702 3.80702H13.1228V2.2807C13.1228 2.04678 13.0643 1.83041 12.9474 1.63158C12.8304 1.43275 12.6725 1.27778 12.4737 1.16667C12.2749 1.05556 12.0585 1 11.8246 1H8.80702C8.45614 1 8.15205 1.12281 7.89474 1.36842C7.63743 1.61404 7.50877 1.91813 7.50877 2.2807V3.80702H3.5614C3.40936 3.80702 3.27778 3.86257 3.16667 3.97368C3.05556 4.0848 3 4.21637 3 4.36842C3 4.52047 3.05556 4.65205 3.16667 4.76316C3.27778 4.87427 3.40936 4.92982 3.5614 4.92982H4.33333L5.63158 17.9123C5.66667 18.2164 5.79825 18.4737 6.02632 18.6842C6.25439 18.8947 6.52047 19 6.82456 19H13.807C14.1111 19 14.3772 18.8947 14.6053 18.6842C14.8333 18.4737 14.9591 18.2164 14.9825 17.9123L16.2982 4.92982H17.0702C17.1637 4.92982 17.2544 4.90351 17.3421 4.85088C17.4298 4.79825 17.5 4.73099 17.5526 4.64912C17.6053 4.56725 17.6316 4.47368 17.6316 4.36842C17.6316 4.21637 17.576 4.0848 17.4649 3.97368C17.3538 3.86257 17.2222 3.80702 17.0702 3.80702ZM8.63158 2.2807C8.63158 2.16374 8.69006 2.10526 8.80702 2.10526H11.8246C11.9415 2.10526 12 2.16374 12 2.2807V3.80702H8.63158V2.2807ZM13.8772 17.807C13.8655 17.8538 13.8421 17.8772 13.807 17.8772H6.82456C6.78947 17.8772 6.76608 17.8538 6.75439 17.807L5.47368 4.92982H15.1579L13.8772 17.807Z" fill="black"/>
</svg>
