<svg width="30" height="30" viewBox="0 0 30 30" fill="none" xmlns="http://www.w3.org/2000/svg">
<path d="M7.28571 17.5714C8.02671 17.5713 8.74499 17.8271 9.31901 18.2957C9.89303 18.7643 10.2875 19.4168 10.4357 20.1429H19.5V7.28571H5.35714C4.67516 7.28571 4.0211 7.55663 3.53887 8.03887C3.05663 8.5211 2.78571 9.17516 2.78571 9.85714V20.1429H4.13571C4.28391 19.4168 4.6784 18.7643 5.25242 18.2957C5.82644 17.8271 6.54472 17.5713 7.28571 17.5714ZM7.28571 24C6.54472 24.0002 5.82644 23.7443 5.25242 23.2757C4.6784 22.8071 4.28391 22.1546 4.13571 21.4286H1.5V9.85714C1.5 8.83417 1.90638 7.85309 2.62973 7.12973C3.35309 6.40638 4.33416 6 5.35714 6H19.5C19.841 6 20.168 6.13546 20.4091 6.37658C20.6503 6.6177 20.7857 6.94472 20.7857 7.28571V9.85714H24.6429L28.5 14.9756V21.4286H25.8643C25.7167 22.1552 25.3225 22.8084 24.7485 23.2777C24.1744 23.7469 23.4557 24.0032 22.7143 24.0032C21.9728 24.0032 21.2542 23.7469 20.6801 23.2777C20.106 22.8084 19.7118 22.1552 19.5643 21.4286H10.4357C10.2875 22.1546 9.89303 22.8071 9.31901 23.2757C8.74499 23.7443 8.02671 24.0002 7.28571 24ZM7.28571 18.8571C6.77423 18.8571 6.28369 19.0603 5.92201 19.422C5.56033 19.7837 5.35714 20.2742 5.35714 20.7857C5.35714 21.2972 5.56033 21.7877 5.92201 22.1494C6.28369 22.5111 6.77423 22.7143 7.28571 22.7143C7.7972 22.7143 8.28774 22.5111 8.64942 22.1494C9.0111 21.7877 9.21429 21.2972 9.21429 20.7857C9.21429 20.2742 9.0111 19.7837 8.64942 19.422C8.28774 19.0603 7.7972 18.8571 7.28571 18.8571ZM22.7143 17.5714C23.4553 17.5713 24.1736 17.8271 24.7476 18.2957C25.3216 18.7643 25.7161 19.4168 25.8643 20.1429H27.2143V15.4063L26.9083 15H20.7857V18.2143C21.3417 17.7962 22.0187 17.5705 22.7143 17.5714ZM22.7143 18.8571C22.2028 18.8571 21.7123 19.0603 21.3506 19.422C20.9889 19.7837 20.7857 20.2742 20.7857 20.7857C20.7857 21.2972 20.9889 21.7877 21.3506 22.1494C21.7123 22.5111 22.2028 22.7143 22.7143 22.7143C23.2258 22.7143 23.7163 22.5111 24.078 22.1494C24.4397 21.7877 24.6429 21.2972 24.6429 20.7857C24.6429 20.2742 24.4397 19.7837 24.078 19.422C23.7163 19.0603 23.2258 18.8571 22.7143 18.8571ZM20.7857 11.1429V13.7143H25.9401L24 11.1429H20.7857Z" fill="black"/>
</svg>
