<svg width="20" height="20" viewBox="0 0 20 20" fill="none" xmlns="http://www.w3.org/2000/svg">
<path fill-rule="evenodd" clip-rule="evenodd" d="M3.38402 5.58053C2.97923 5.72378 2.6288 5.98897 2.38094 6.3396C2.13309 6.69024 2 7.10907 2 7.53846C2 7.96785 2.13309 8.38669 2.38094 8.73732C2.6288 9.08795 2.97923 9.35314 3.38402 9.49639L3.38402 20L4.76864 20L4.76864 9.49639C5.17343 9.35314 5.52387 9.08795 5.77172 8.73732C6.01958 8.38669 6.15266 7.96785 6.15266 7.53846C6.15266 7.10907 6.01958 6.69024 5.77172 6.3396C5.52387 5.98897 5.17343 5.72378 4.76864 5.58053L4.76864 2L3.38402 2L3.38402 5.58053ZM7.53788 14.4615C7.53849 14.8909 7.67188 15.3095 7.91977 15.66C8.16766 16.0106 8.51791 16.2758 8.92249 16.4195L8.92249 20L10.3071 20L10.3071 16.4195C10.7119 16.2762 11.0623 16.011 11.3102 15.6604C11.558 15.3098 11.6911 14.8909 11.6911 14.4615C11.6911 14.0321 11.558 13.6133 11.3102 13.2627C11.0623 12.912 10.7119 12.6469 10.3071 12.5036L10.3071 2L8.92249 2L8.92249 12.5036C8.51791 12.6472 8.16766 12.9125 7.91977 13.2631C7.67188 13.6136 7.53849 14.0322 7.53788 14.4615ZM13.4582 8.73695C13.2103 8.38641 13.0769 7.96779 13.0763 7.53846C13.0769 7.10914 13.2103 6.69051 13.4582 6.33998C13.7061 5.98945 14.0563 5.72417 14.4609 5.58053L14.4609 2L15.8455 2L15.8455 5.58053C16.2503 5.72378 16.6008 5.98897 16.8486 6.3396C17.0965 6.69024 17.2296 7.10907 17.2296 7.53846C17.2296 7.96785 17.0965 8.38669 16.8486 8.73732C16.6008 9.08795 16.2503 9.35314 15.8455 9.49639L15.8455 20L14.4609 20L14.4609 9.49639C14.0563 9.35275 13.7061 9.08748 13.4582 8.73695Z" fill="black"/>
</svg>
