<svg width="20" height="20" viewBox="0 0 20 20" fill="none" xmlns="http://www.w3.org/2000/svg">
<path d="M17.707 6.0432L15.375 8.3752L11.625 4.6252L13.957 2.2932C14.0498 2.20026 14.16 2.12652 14.2813 2.07621C14.4026 2.0259 14.5327 2 14.664 2C14.7953 2 14.9254 2.0259 15.0467 2.07621C15.168 2.12652 15.2782 2.20026 15.371 2.2932L17.707 4.6292C17.7999 4.72199 17.8737 4.83219 17.924 4.95351C17.9743 5.07482 18.0002 5.20487 18.0002 5.3362C18.0002 5.46753 17.9743 5.59758 17.924 5.71889C17.8737 5.84021 17.7999 5.95041 17.707 6.0432ZM1 15.2492L11.065 5.1852L14.815 8.9352L4.75 18.9992H1.001V15.2492H1ZM14.622 3.0452L13.082 4.5842L15.419 6.9192L16.957 5.3802L14.622 3.0452ZM13.358 8.9802L11.023 6.6442L2.001 15.6652V18.0012H4.337L13.358 8.9802Z" fill="black"/>
</svg>
