<svg viewBox="0 0 30 30" fill="none" xmlns="http://www.w3.org/2000/svg">
<path d="M5.76316 4.5H24.2368C25.3675 4.5 26.4519 4.9425 27.2514 5.73015C28.0508 6.5178 28.5 7.58609 28.5 8.7V21.3C28.5 22.4139 28.0508 23.4822 27.2514 24.2698C26.4519 25.0575 25.3675 25.5 24.2368 25.5H5.76316C4.6325 25.5 3.54815 25.0575 2.74865 24.2698C1.94915 23.4822 1.5 22.4139 1.5 21.3V8.7C1.5 7.58609 1.94915 6.5178 2.74865 5.73015C3.54815 4.9425 4.6325 4.5 5.76316 4.5ZM5.76316 5.9C5.06968 5.9 4.43305 6.145 3.93995 6.5524L15 13.628L26.0601 6.5524C25.5493 6.13018 24.9036 5.89914 24.2368 5.9H5.76316ZM15 15.2968L3.11147 7.692C2.98541 8.01355 2.92085 8.3553 2.92105 8.7V21.3C2.92105 22.0426 3.22049 22.7548 3.75349 23.2799C4.28648 23.805 5.00938 24.1 5.76316 24.1H24.2368C24.9906 24.1 25.7135 23.805 26.2465 23.2799C26.7795 22.7548 27.0789 22.0426 27.0789 21.3V8.7C27.0789 8.3444 27.0122 8.0042 26.8885 7.692L15 15.2954V15.2968Z" fill="#1DA7AF"/>
</svg>
