<svg width="140" height="140" viewBox="0 0 140 140" fill="none" xmlns="http://www.w3.org/2000/svg">
<path opacity="0.3" d="M28.4376 115.208C27.04 115.208 25.6424 114.649 24.5244 113.531L13.3438 102.351C11.1077 100.115 11.1077 96.7604 13.3438 94.5243C15.5799 92.2882 19.2136 92.2882 21.1702 94.5243L28.4376 101.792L46.8855 83.3438C49.1216 81.1077 52.4758 81.1077 54.7119 83.3438C56.948 85.5799 56.948 88.9341 54.7119 91.1702L32.3508 113.531C31.2327 114.649 29.8351 115.208 28.4376 115.208Z" fill="#EDBC9B"/>
<path fill-rule="evenodd" clip-rule="evenodd" d="M23.3335 35C23.3335 28.5567 28.5568 23.3333 35.0002 23.3333H116.667C123.11 23.3333 128.334 28.5567 128.334 35V87.5C128.334 93.9433 123.11 99.1667 116.667 99.1667H75.7378C74.2369 76.3641 55.2659 58.3333 32.0835 58.3333C29.0869 58.3333 26.1607 58.6346 23.3335 59.2085V35ZM111.676 34.0646C113.803 32.9191 116.457 33.7151 117.602 35.8425C118.748 37.9699 117.952 40.6232 115.824 41.7687L77.9077 62.1854C76.6128 62.8827 75.0542 62.8827 73.7593 62.1854L35.8426 41.7687C33.7152 40.6232 32.9192 37.9699 34.0648 35.8425C35.2103 33.7151 37.8636 32.9191 39.991 34.0646L75.8335 53.3644L111.676 34.0646Z" fill="#EDBC9B"/>
</svg>
