<svg viewBox="0 0 20 18" fill="none" xmlns="http://www.w3.org/2000/svg">
<path d="M10.0055 16.4378L10.0054 16.4377L10.0002 16.4429C10.0002 16.4429 10.0001 16.4429 10 16.4429C9.99993 16.4429 9.99986 16.4429 9.99978 16.4429L9.99494 16.4382L3.03066 9.71944L3.00729 9.69689L2.98193 9.67661C2.94265 9.64519 2.86488 9.57392 2.73962 9.44508C2.63549 9.33797 2.44773 9.11825 2.16491 8.76472C1.90092 8.43473 1.66603 8.0977 1.45962 7.75369C1.26916 7.43625 1.08977 7.03575 0.926822 6.54344C0.772753 6.07795 0.7 5.63884 0.7 5.22321C0.7 3.72686 1.12727 2.64554 1.90643 1.88478C2.68861 1.12109 3.80068 0.7 5.33482 0.7C5.71399 0.7 6.1099 0.765569 6.52529 0.904034C6.94894 1.04525 7.3403 1.23472 7.7013 1.47213L8.08594 0.887277L7.7013 1.47213C8.10111 1.73507 8.43793 1.97714 8.7145 2.19839C8.99207 2.42045 9.25554 2.65621 9.50503 2.90569L10 3.40066L10.495 2.90569C10.7445 2.65621 11.0079 2.42045 11.2855 2.19839C11.5621 1.97714 11.8989 1.73507 12.2987 1.47213C12.6597 1.23472 13.0511 1.04525 13.4747 0.904034C13.8901 0.765569 14.286 0.7 14.6652 0.7C16.1993 0.7 17.3114 1.12109 18.0936 1.88478C18.8727 2.64554 19.3 3.72686 19.3 5.22321C19.3 6.60927 18.5841 8.1142 16.9538 9.74595L10.0055 16.4378Z" fill="white" stroke="#333640" stroke-width="1.4"/>
</svg>
