<svg width="24" height="24" viewBox="0 0 24 24" fill="none" xmlns="http://www.w3.org/2000/svg">
<path fill-rule="evenodd" clip-rule="evenodd" d="M20.8857 4.29947C20.2886 3.69814 19.5785 3.22076 18.7963 2.89478C18.014 2.5688 17.1751 2.40065 16.3276 2.4C14.7247 2.40026 13.1803 3.00241 12.0002 4.08722C10.8203 3.00223 9.27578 2.40005 7.6728 2.4C6.82436 2.40088 5.98448 2.56955 5.20147 2.89628C4.41847 3.22301 3.70781 3.70136 3.11039 4.30381C0.562237 6.86279 0.56332 10.8653 3.11255 13.4135L12.0002 22.3011L20.8879 13.4135C23.4371 10.8653 23.4382 6.86279 20.8857 4.29947ZM12.0002 20.6041L20.0394 12.5649C22.1185 10.4867 22.1229 7.24253 20.0354 5.1462L20.8857 4.29947L20.0342 5.14501C19.5485 4.65589 18.9709 4.26759 18.3347 4.00245C17.6986 3.73737 17.0164 3.60061 16.3273 3.6C15.0253 3.60035 13.7709 4.08951 12.8123 4.97066L12.0001 5.71731L11.188 4.97055C10.2296 4.08934 8.9753 3.6002 7.67341 3.6C6.98341 3.6008 6.30038 3.73801 5.66359 4.00373C5.0266 4.26953 4.44847 4.65868 3.96246 5.14877L3.96071 5.15053C1.8781 7.242 1.88123 10.486 3.9609 12.5648L12.0002 20.6041Z" fill="black"/>
</svg>
