<svg width="24" height="24" viewBox="0 0 24 24" fill="none" xmlns="http://www.w3.org/2000/svg">
<path d="M22.2857 7.46786C22.2857 6.74464 22.1897 6.10625 21.9978 5.55268C21.8058 4.99911 21.5603 4.55938 21.2612 4.23348C20.9621 3.90759 20.5982 3.64196 20.1696 3.43661C19.7411 3.23125 19.3214 3.09286 18.9107 3.02143C18.5 2.95 18.0625 2.91429 17.5982 2.91429C17.1339 2.91429 16.6339 3.02813 16.0982 3.2558C15.5625 3.48348 15.0692 3.7692 14.6183 4.11295C14.1674 4.4567 13.7812 4.77813 13.4598 5.07723C13.1384 5.37634 12.8705 5.65089 12.6562 5.90089C12.4955 6.09732 12.2768 6.19554 12 6.19554C11.7232 6.19554 11.5045 6.09732 11.3438 5.90089C11.1295 5.65089 10.8616 5.37634 10.5402 5.07723C10.2188 4.77813 9.83259 4.4567 9.3817 4.11295C8.9308 3.7692 8.4375 3.48348 7.90179 3.2558C7.36607 3.02813 6.86607 2.91429 6.40179 2.91429C5.9375 2.91429 5.5 2.95 5.08929 3.02143C4.67857 3.09286 4.25893 3.23125 3.83036 3.43661C3.40179 3.64196 3.03795 3.90759 2.73884 4.23348C2.43973 4.55938 2.1942 4.99911 2.00223 5.55268C1.81027 6.10625 1.71429 6.74464 1.71429 7.46786C1.71429 8.96786 2.54911 10.5527 4.21875 12.2223L12 19.7223L19.7679 12.2357C21.4464 10.5571 22.2857 8.96786 22.2857 7.46786ZM24 7.46786C24 9.44107 22.9777 11.45 20.933 13.4946L12.5893 21.5304C12.4286 21.6911 12.2321 21.7714 12 21.7714C11.7679 21.7714 11.5714 21.6911 11.4107 21.5304L3.05357 13.4679C2.96429 13.3964 2.84152 13.2804 2.68527 13.1196C2.52902 12.9589 2.28125 12.6665 1.94196 12.2424C1.60268 11.8183 1.29911 11.383 1.03125 10.9366C0.763393 10.4902 0.524554 9.95 0.314732 9.31607C0.104911 8.68214 0 8.06607 0 7.46786C0 5.50357 0.566964 3.96786 1.70089 2.86071C2.83482 1.75357 4.40179 1.2 6.40179 1.2C6.95536 1.2 7.52009 1.29598 8.09598 1.48795C8.67188 1.67991 9.20759 1.93884 9.70312 2.26473C10.1987 2.59063 10.625 2.89643 10.9821 3.18214C11.3393 3.46786 11.6786 3.77143 12 4.09286C12.3214 3.77143 12.6607 3.46786 13.0179 3.18214C13.375 2.89643 13.8013 2.59063 14.2969 2.26473C14.7924 1.93884 15.3281 1.67991 15.904 1.48795C16.4799 1.29598 17.0446 1.2 17.5982 1.2C19.5982 1.2 21.1652 1.75357 22.2991 2.86071C23.433 3.96786 24 5.50357 24 7.46786Z" fill="#333640"/>
</svg>
