<svg width="20" height="20" viewBox="0 0 20 20" fill="none" xmlns="http://www.w3.org/2000/svg">
<path fill-rule="evenodd" clip-rule="evenodd" d="M17.4048 3.58289C16.9072 3.08178 16.3155 2.68396 15.6636 2.41231C15.0117 2.14066 14.3126 2.00054 13.6064 2C12.2706 2.00022 10.9836 2.50201 10.0002 3.40601C9.01692 2.50185 7.72986 2.00004 6.39404 2C5.68701 2.00074 4.9871 2.14129 4.3346 2.41356C3.6821 2.68584 3.08988 3.08447 2.59203 3.5865C0.468571 5.71899 0.469474 9.05444 2.59384 11.1779L10.0002 18.5843L17.4066 11.1779C19.531 9.05444 19.5319 5.71899 17.4048 3.58289ZM10.0002 17.1701L16.6995 10.4708C18.4321 8.7389 18.4358 6.03544 16.6962 4.2885L17.4048 3.58289L16.6952 4.28751C16.2905 3.87991 15.8092 3.55633 15.2789 3.33537C14.7489 3.11448 14.1804 3.0005 13.6061 3C12.5211 3.00029 11.4758 3.40792 10.677 4.14221L10.0001 4.76442L9.32336 4.14212C8.52474 3.40779 7.47946 3.00017 6.39455 3C5.81955 3.00067 5.25036 3.11501 4.7197 3.33644C4.18888 3.55794 3.7071 3.88223 3.30209 4.29064L3.30064 4.29211C1.56512 6.035 1.56773 8.73832 3.30079 10.4706L10.0002 17.1701Z" fill="black"/>
</svg>
