<svg width="20" height="20" viewBox="0 0 20 20" fill="none" xmlns="http://www.w3.org/2000/svg">
<path d="M4.19528 17.2308C4.33853 17.6355 4.60372 17.986 4.95435 18.2338C5.30498 18.4817 5.72382 18.6148 6.15321 18.6148C6.5826 18.6148 7.00143 18.4817 7.35207 18.2338C7.7027 17.986 7.96789 17.6355 8.11114 17.2308L18.6147 17.2308V15.8461L8.11114 15.8461C7.96789 15.4414 7.7027 15.0909 7.35207 14.8431C7.00143 14.5952 6.5826 14.4621 6.15321 14.4621C5.72382 14.4621 5.30498 14.5952 4.95435 14.8431C4.60372 15.0909 4.33853 15.4414 4.19528 15.8461L0.614747 15.8461L0.614747 17.2308H4.19528Z" fill="black"/>
<path d="M13.0763 13.0769C13.5056 13.0763 13.9242 12.9429 14.2748 12.695C14.6253 12.4471 14.8906 12.0969 15.0342 11.6923H18.6147V10.3077H15.0342C14.891 9.90289 14.6258 9.55245 14.2751 9.30459C13.9245 9.05674 13.5057 8.92365 13.0763 8.92365C12.6469 8.92365 12.2281 9.05674 11.8774 9.30459C11.5268 9.55245 11.2616 9.90289 11.1184 10.3077L0.614747 10.3077L0.614747 11.6923L11.1184 11.6923C11.262 12.0969 11.5273 12.4471 11.8778 12.695C12.2283 12.9429 12.647 13.0763 13.0763 13.0769Z" fill="black"/>
<path d="M7.35169 7.15658C7.00116 7.40447 6.58253 7.53787 6.15321 7.53848C5.72388 7.53787 5.30525 7.40447 4.95472 7.15658C4.60419 6.90869 4.33892 6.55845 4.19528 6.15386L0.614746 6.15386L0.614746 4.76925L4.19528 4.76925C4.33853 4.36446 4.60372 4.01402 4.95435 3.76616C5.30498 3.51831 5.72382 3.38522 6.15321 3.38522C6.5826 3.38522 7.00143 3.51831 7.35206 3.76616C7.7027 4.01402 7.96789 4.36446 8.11114 4.76925L18.6147 4.76925V6.15386L8.11114 6.15386C7.9675 6.55845 7.70222 6.90869 7.35169 7.15658Z" fill="black"/>
</svg>
