<svg width="40" height="29" viewBox="0 0 40 29" fill="none" xmlns="http://www.w3.org/2000/svg">
<path d="M39.4014 5.0086H35.4592C34.395 5.00106 33.347 4.74672 32.3977 4.26557L25.7516 0.880635C24.6135 0.301772 23.3546 2.96469e-05 22.0777 1.22858e-06H17.3581C16.7547 -0.000490388 16.1602 0.146566 15.6266 0.428361C15.093 0.710157 14.6364 1.11814 14.2965 1.61679L8.10458 2.49742L0.694874 1.67183C0.51773 1.65956 0.342702 1.71626 0.206398 1.83007C0.141348 1.8894 0.0893926 1.96166 0.0538531 2.04221C0.0183136 2.12277 -2.81178e-05 2.20986 3.23536e-08 2.2979V15.6381C3.23536e-08 15.8042 0.0659612 15.9634 0.183373 16.0808C0.300785 16.1982 0.46003 16.2642 0.626075 16.2642H1.87822V18.0323C1.87526 18.6045 2.0779 19.1588 2.44926 19.5941C4.60377 22.1165 7.40248 24.0069 10.547 25.0636C12.3696 25.6628 14.2768 25.9647 16.1954 25.958H16.6907L18.5277 27.7881C18.6203 27.883 18.7408 27.9457 18.8717 27.967C19.6364 28.0869 20.4093 28.1467 21.1834 28.1459C23.7192 28.1556 26.2124 27.4936 28.4093 26.2271C30.6063 24.9606 32.4286 23.1349 33.6911 20.9357C33.7352 20.8482 33.7582 20.7516 33.7582 20.6536C33.7582 20.5556 33.7352 20.459 33.6911 20.3715C33.6911 20.3027 33.6292 20.2339 33.5948 20.1651L39.601 17.8741C39.7182 17.8275 39.8188 17.7469 39.8899 17.6427C39.961 17.5385 39.9993 17.4154 40 17.2893V5.5934C39.9899 5.43925 39.9233 5.29426 39.8128 5.18631C39.7023 5.07836 39.5558 5.01506 39.4014 5.0086ZM10.9322 23.8528C7.99972 22.8735 5.38537 21.1219 3.36429 18.7822C3.18936 18.5717 3.09434 18.3061 3.09598 18.0323V16.2642H4.87788C5.56296 16.2627 6.24155 16.3968 6.87449 16.659C7.50742 16.9211 8.08216 17.3061 8.56553 17.7915L15.4455 24.6715C13.911 24.6035 12.3928 24.3281 10.9322 23.8528ZM30.7465 22.8001C30.3712 21.5482 29.8639 20.3397 29.2329 19.195C28.1417 17.2325 26.6953 15.4898 24.9673 14.0557C24.9027 14.0015 24.8281 13.9606 24.7477 13.9352C24.6672 13.9098 24.5826 13.9006 24.4986 13.9079C24.4146 13.9153 24.3328 13.9391 24.258 13.978C24.1832 14.017 24.1168 14.0702 24.0626 14.1348C24.0084 14.1994 23.9674 14.2741 23.9421 14.3545C23.9167 14.4349 23.9074 14.5196 23.9148 14.6036C23.9221 14.6876 23.946 14.7693 23.9849 14.8441C24.0238 14.919 24.0771 14.9854 24.1417 15.0396C25.7494 16.3687 27.0955 17.9855 28.1115 19.8074C28.8069 21.0524 29.3388 22.3821 29.6938 23.7633C29.1071 24.2795 28.4737 24.7401 27.8019 25.1393C27.4579 25.3388 27.1139 25.5177 26.763 25.676C26.645 24.6083 26.3666 23.5646 25.9374 22.58C25.1798 20.8402 23.9853 19.3258 22.4699 18.1837C22.3374 18.0848 22.1712 18.0423 22.0075 18.0655C21.8438 18.0887 21.6959 18.1757 21.5961 18.3075C21.4969 18.4411 21.4542 18.6084 21.4774 18.7733C21.5005 18.9381 21.5877 19.0871 21.72 19.1882C23.0718 20.1853 24.143 21.5148 24.8297 23.0478C25.258 24.0222 25.5185 25.0619 25.6003 26.1232C24.7088 26.4352 23.786 26.6498 22.8483 26.763C22.6408 25.6658 22.2046 24.6245 21.5681 23.707C20.9315 22.7896 20.1089 22.0164 19.1538 21.4379C19.0127 21.3604 18.8473 21.3402 18.6917 21.3814C18.5362 21.4226 18.4025 21.5222 18.3184 21.6594C18.2343 21.7966 18.2063 21.9609 18.2401 22.1182C18.274 22.2756 18.3671 22.4138 18.5002 22.5043C19.2848 22.9796 19.9637 23.6107 20.495 24.3585C21.0263 25.1063 21.3987 25.9551 21.5893 26.8524C20.8235 26.8712 20.0575 26.8298 19.2982 26.7286L17.4131 24.8435L9.5012 16.9315C8.89844 16.3182 8.17858 15.8323 7.38437 15.5025C6.59016 15.1728 5.7378 15.006 4.87788 15.012H1.25215V2.99278L8.0633 3.74957C8.11581 3.75649 8.16901 3.75649 8.22153 3.74957L13.3746 3.04782L12.8036 3.92845C12.4511 4.46085 12.299 5.10104 12.3742 5.73509C12.4495 6.36915 12.7472 6.95594 13.2146 7.39104C13.6819 7.82614 14.2884 8.08134 14.9262 8.11121C15.564 8.14109 16.1917 7.9437 16.6976 7.55418L18.3488 6.29515H21.259C23.6316 8.16643 25.7767 10.3092 27.6505 12.6797C29.5657 15.1155 31.1826 17.7717 32.4665 20.5917C31.9717 21.3858 31.3952 22.126 30.7465 22.8001ZM38.7754 16.8765L33.0857 19.0574C31.8587 16.5277 30.3691 14.1341 28.6412 11.9161C26.6636 9.38187 24.3858 7.09707 21.8576 5.1118C21.7453 5.03038 21.611 4.98482 21.4723 4.98108H18.7616V3.73581C18.7616 3.56977 18.6956 3.41052 18.5782 3.29311C18.4608 3.1757 18.3016 3.10974 18.1355 3.10974C17.9695 3.10974 17.8102 3.1757 17.6928 3.29311C17.5754 3.41052 17.5095 3.56977 17.5095 3.73581V5.30444L15.9408 6.50155C15.6688 6.69476 15.3383 6.78786 15.0054 6.76504C14.6725 6.74222 14.3578 6.60488 14.1147 6.37635C13.8715 6.14782 13.715 5.84218 13.6717 5.51134C13.6283 5.1805 13.7008 4.84486 13.8768 4.56141L15.2872 2.35982C15.5111 2.01624 15.817 1.73382 16.1774 1.53804C16.5377 1.34226 16.9411 1.23928 17.3512 1.23839H22.0777C23.1518 1.23751 24.2107 1.49221 25.1668 1.98143L31.806 5.36636C32.9382 5.94134 34.1894 6.24295 35.4592 6.24699H38.7754V16.8765Z" fill="black"/>
</svg>
