<svg width="80" height="80" viewBox="0 0 80 80" fill="none" xmlns="http://www.w3.org/2000/svg">
<path opacity="0.3" fill-rule="evenodd" clip-rule="evenodd" d="M68.0205 22.1391C69.2242 22.6741 70 23.8679 70 25.1852V54.3909C70 55.6015 69.3437 56.7169 68.2855 57.3048L41.6188 72.1196C40.6121 72.6789 39.3879 72.6789 38.3812 72.1196L11.7145 57.3048C10.6563 56.7169 10 55.6015 10 54.3909L10 25.1852C10 23.8679 10.7758 22.6741 11.9795 22.1391L38.6462 10.2873C39.5081 9.90424 40.4919 9.90424 41.3538 10.2873L68.0205 22.1391Z" fill="#EDBC9B"/>
<path fill-rule="evenodd" clip-rule="evenodd" d="M49.8912 13.7671L25.334 27.41V42.7046L32.0007 46.038V31.3327L57.5176 17.1566L49.8912 13.7671Z" fill="#EDBC9B"/>
</svg>
