<svg width="80" height="80" viewBox="0 0 80 80" fill="none" xmlns="http://www.w3.org/2000/svg">
<rect opacity="0.3" x="22.123" y="6.66675" width="33.3333" height="10" rx="1" fill="#EDBC9B"/>
<path fill-rule="evenodd" clip-rule="evenodd" d="M18.334 23.3335C15.5726 23.3335 13.334 25.5721 13.334 28.3335V74.6668C13.334 75.7714 14.2294 76.6668 15.334 76.6668H62.2458C63.3504 76.6668 64.2458 75.7714 64.2458 74.6668V28.3335C64.2458 25.5721 62.0073 23.3335 59.2458 23.3335H18.334ZM24.1236 33.3335C23.019 33.3335 22.1236 34.2289 22.1236 35.3335V48.0002C22.1236 49.1047 23.019 50.0002 24.1236 50.0002H53.4569C54.5615 50.0002 55.4569 49.1047 55.4569 48.0002V35.3335C55.4569 34.2289 54.5615 33.3335 53.4569 33.3335H24.1236Z" fill="#EDBC9B"/>
</svg>
