<svg width="64" height="64" viewBox="0 0 64 64" fill="none" xmlns="http://www.w3.org/2000/svg">
<path opacity="0.3" fill-rule="evenodd" clip-rule="evenodd" d="M45.3145 17.0947L46.9497 10.0868C47.2819 8.66271 48.5515 7.65527 50.0138 7.65527H55.5201C57.2578 7.65527 58.6665 9.06399 58.6665 10.8017C58.6665 12.5395 57.2578 13.9482 55.5201 13.9482H52.5106L48.3853 31.5849L46.2475 44.4117C46.1557 44.9622 45.6312 45.331 45.0822 45.2312L12.0815 39.2311C11.7069 39.1629 11.4035 38.888 11.2989 38.5219L5.54104 18.3694C5.35852 17.7306 5.83818 17.0947 6.50256 17.0947H45.3145Z" fill="#EDBC9B"/>
<path fill-rule="evenodd" clip-rule="evenodd" d="M21.334 52C21.334 54.2091 19.5431 56 17.334 56C15.1248 56 13.334 54.2091 13.334 52C13.334 49.7909 15.1248 48 17.334 48C19.5431 48 21.334 49.7909 21.334 52ZM45.334 52C45.334 54.2091 43.5431 56 41.334 56C39.1248 56 37.334 54.2091 37.334 52C37.334 49.7909 39.1248 48 41.334 48C43.5431 48 45.334 49.7909 45.334 52Z" fill="#EDBC9B"/>
</svg>
