<svg width="64" height="64" viewBox="0 0 64 64" fill="none" xmlns="http://www.w3.org/2000/svg">
<path fill-rule="evenodd" clip-rule="evenodd" d="M2.66602 18.6673C2.66602 16.9 4.0987 15.4673 5.86602 15.4673H57.066C58.8333 15.4673 60.266 16.9 60.266 18.6673V21.8672C60.266 23.6347 58.8333 25.0672 57.066 25.0672H5.86602C4.0987 25.0672 2.66602 23.6347 2.66602 21.8672V18.6673ZM5.86602 34.6672C5.86602 32.8999 7.2987 31.4672 9.06602 31.4672H25.066C26.8333 31.4672 28.266 32.8999 28.266 34.6672V57.0672C28.266 58.8347 26.8333 60.2672 25.066 60.2672H9.06602C7.2987 60.2672 5.86602 58.8347 5.86602 57.0672V34.6672ZM37.866 31.4672C36.0988 31.4672 34.666 32.8999 34.666 34.6672V57.0672C34.666 58.8347 36.0988 60.2672 37.866 60.2672H53.866C55.6333 60.2672 57.066 58.8347 57.066 57.0672V34.6672C57.066 32.8999 55.6333 31.4672 53.866 31.4672H37.866Z" fill="#EDBC9B"/>
<path opacity="0.3" d="M39.2913 3.20451C40.7618 2.2242 42.7486 2.62156 43.7288 4.09204C44.7093 5.56253 44.3119 7.54932 42.8414 8.52963L31.4664 16.113L20.0913 8.52963C18.6208 7.54932 18.2235 5.56253 19.2038 4.09204C20.1841 2.62156 22.1709 2.2242 23.6414 3.20451L31.4664 8.42115L39.2913 3.20451Z" fill="#EDBC9B"/>
</svg>
