<svg width="80" height="80" viewBox="0 0 80 80" fill="none" xmlns="http://www.w3.org/2000/svg">
<path opacity="0.3" d="M13.334 14.3333C13.334 13.781 13.7817 13.3333 14.334 13.3333H64.8602C65.4124 13.3333 65.8602 13.781 65.8602 14.3333V67.9999C65.8602 69.1045 64.9647 69.9999 63.8602 69.9999H15.334C14.2294 69.9999 13.334 69.1045 13.334 67.9999V14.3333Z" fill="#EDBC9B"/>
<path fill-rule="evenodd" clip-rule="evenodd" d="M22.9297 23.3333H29.5964C29.5964 28.8561 34.0735 33.3333 39.5964 33.3333C45.1192 33.3333 49.5964 28.8561 49.5964 23.3333H56.263C56.263 32.538 48.8011 39.9999 39.5964 39.9999C30.3916 39.9999 22.9297 32.538 22.9297 23.3333Z" fill="#EDBC9B"/>
</svg>
