<svg width="40" height="30" viewBox="0 0 40 30" fill="none" xmlns="http://www.w3.org/2000/svg">
<path d="M0 6C0 2.68629 2.68629 0 6 0H34C37.3137 0 40 2.68629 40 6V24C40 27.3137 37.3137 30 34 30H6C2.68629 30 0 27.3137 0 24V6Z" fill="#C7B2FB"/>
<path d="M9 24H10.4696L12.1676 21.0889L13.8457 24H15.3153L12.9024 19.9556L15.2557 16H13.7762L12.1676 18.8111L10.5292 16H9.06951L11.4229 19.9556L9 24Z" fill="white"/>
<path d="M23.1153 24V16H21.9039L18.5874 21.6333V16H17.376V24H18.5874L21.9039 18.3556V24H23.1153Z" fill="white"/>
<path d="M27.4849 24H28.6864V17.2556H31V16H25.1712V17.2556H27.4849V24Z" fill="white"/>
</svg>
