<svg width="30" height="30" viewBox="0 0 30 30" fill="none" xmlns="http://www.w3.org/2000/svg">
<path fill-rule="evenodd" clip-rule="evenodd" d="M28.4838 11.7861C28.4838 11.7699 28.5 11.7635 28.5 11.7473C28.5 11.7383 28.491 11.7311 28.4892 11.723C28.491 11.7041 28.4946 11.6879 28.4946 11.6681L26.8676 1.90428C26.8307 1.67017 26.6245 1.5 26.3913 1.5H3.61232C3.37461 1.5 3.17292 1.67017 3.13421 1.90428L1.5 11.7473C1.5 13.0259 2.14558 14.1532 3.12881 14.8285V28.0174C3.12881 28.2848 3.3431 28.5009 3.61232 28.5009H16.6275H23.1364H26.3913C26.6587 28.5009 26.8748 28.2848 26.8748 28.0174V14.8213C27.822 14.1604 28.4505 13.061 28.4838 11.7861ZM26.15 14.1307H26.1446C25.942 14.2504 25.7331 14.3351 25.5188 14.3981C25.4909 14.4071 25.4639 14.417 25.436 14.4242C25.2145 14.4818 24.9912 14.5178 24.7643 14.5178C23.4011 14.5178 22.2738 13.5292 22.0424 12.2318H27.4817C27.3367 13.043 26.8379 13.7273 26.15 14.1307ZM21.0241 11.2638H15.4849V2.46882H21.0241V11.2638ZM14.5151 11.2638H8.97414V2.46882H14.5151V11.2638ZM14.4656 12.2309C14.2351 13.5283 13.106 14.5169 11.7455 14.5169C10.3851 14.5169 9.25506 13.5283 9.02366 12.2309H14.4656ZM20.9745 12.2309C20.744 13.5283 19.6168 14.5169 18.2545 14.5169C16.8967 14.5169 15.7676 13.5265 15.5371 12.2309H20.9745ZM27.451 11.2638H21.9929V2.46882H25.978L27.451 11.2638ZM4.02019 2.46882H8.00712V11.2638H2.55706L4.02019 2.46882ZM2.50754 12.2309H7.9576C7.7271 13.5283 6.59801 14.5169 5.23842 14.5169C5.00792 14.5169 4.78462 14.4818 4.56313 14.4233C4.53702 14.4161 4.51181 14.4071 4.48569 14.4008C4.2714 14.336 4.05801 14.2513 3.85452 14.1316C3.85092 14.128 3.84191 14.1298 3.83831 14.1262C3.13871 13.7183 2.63989 13.0277 2.50754 12.2309ZM17.111 27.5339V18.7407H22.652V27.5339H17.111ZM25.9069 15.2994V27.5339H23.6208V18.2563C23.6208 17.9888 23.4029 17.7728 23.1355 17.7728H16.6266C16.3591 17.7728 16.1412 17.9888 16.1412 18.2563V27.5348H4.09672V15.3003C4.12284 15.3093 4.14985 15.3057 4.17596 15.3147C4.51361 15.4146 4.86566 15.4867 5.23842 15.4867C6.63132 15.4867 7.84775 14.7195 8.48973 13.5877C9.13351 14.7204 10.3517 15.4867 11.7446 15.4867C13.1375 15.4867 14.3558 14.7195 14.9977 13.5859C15.6415 14.7204 16.8598 15.4867 18.2527 15.4867C19.6456 15.4867 20.8638 14.7195 21.5076 13.5877C22.1513 14.7204 23.3678 15.4867 24.7625 15.4867C25.1334 15.4867 25.4855 15.4146 25.8231 15.3129C25.8511 15.303 25.879 15.3084 25.9069 15.2994ZM12.8917 24.279H7.35073V18.7416H12.8917V24.279ZM13.3752 17.7719H6.86633C6.59711 17.7719 6.38101 17.9879 6.38101 18.2554V24.7643C6.38101 25.0317 6.59711 25.2478 6.86633 25.2478H13.3752C13.6427 25.2478 13.8606 25.0317 13.8606 24.7643V18.2554C13.8615 17.9888 13.6427 17.7719 13.3752 17.7719Z" fill="black"/>
</svg>
