<svg width="20" height="20" viewBox="0 0 20 20" fill="none" xmlns="http://www.w3.org/2000/svg">
<path fill-rule="evenodd" clip-rule="evenodd" d="M14.4545 9.70968H5.54545C5.20791 9.70968 4.88418 9.83203 4.6455 10.0498C4.40682 10.2676 4.27273 10.563 4.27273 10.871V16.6774C4.27273 16.9854 4.40682 17.2808 4.6455 17.4986C4.88418 17.7164 5.20791 17.8387 5.54545 17.8387H14.4545C14.7921 17.8387 15.1158 17.7164 15.3545 17.4986C15.5932 17.2808 15.7273 16.9854 15.7273 16.6774V10.871C15.7273 10.563 15.5932 10.2676 15.3545 10.0498C15.1158 9.83203 14.7921 9.70968 14.4545 9.70968ZM5.54545 8.54839C4.87036 8.54839 4.22291 8.79309 3.74555 9.22865C3.26818 9.66422 3 10.255 3 10.871V16.6774C3 17.2934 3.26818 17.8842 3.74555 18.3197C4.22291 18.7553 4.87036 19 5.54545 19H14.4545C15.1296 19 15.7771 18.7553 16.2545 18.3197C16.7318 17.8842 17 17.2934 17 16.6774V10.871C17 10.255 16.7318 9.66422 16.2545 9.22865C15.7771 8.79309 15.1296 8.54839 14.4545 8.54839H5.54545ZM5.54545 5.06452C5.54545 3.98654 6.01477 2.95271 6.85016 2.19047C7.68555 1.42822 8.81858 1 10 1C11.1814 1 12.3144 1.42822 13.1498 2.19047C13.9852 2.95271 14.4545 3.98654 14.4545 5.06452V8.54839H13.1818V5.06452C13.1818 4.29453 12.8466 3.55609 12.2499 3.01163C11.6532 2.46716 10.8439 2.16129 10 2.16129C9.15613 2.16129 8.34682 2.46716 7.75011 3.01163C7.15341 3.55609 6.81818 4.29453 6.81818 5.06452V8.54839H5.54545V5.06452Z" fill="#1DA7AF"/>
</svg>
