<svg width="15" height="9" viewBox="0 0 15 9" fill="none" xmlns="http://www.w3.org/2000/svg">
<path d="M7.50408 8.25C7.36589 8.24988 7.2334 8.19345 7.13575 8.09314L0.915892 1.676C0.864683 1.62704 0.823609 1.568 0.795122 1.50241C0.766634 1.43681 0.751316 1.366 0.750081 1.2942C0.748846 1.22239 0.76172 1.15107 0.787935 1.08448C0.814149 1.0179 0.853167 0.957408 0.902661 0.906628C0.952155 0.855848 1.01111 0.815816 1.07601 0.788921C1.14091 0.762025 1.21043 0.748816 1.28041 0.750083C1.3504 0.75135 1.41941 0.767066 1.48335 0.796294C1.54729 0.825522 1.60483 0.867663 1.65255 0.920203L7.53882 6.95231L13.4598 0.877422C13.5614 0.814663 13.6808 0.789299 13.7983 0.805513C13.9158 0.821727 14.0244 0.878551 14.1061 0.966609C14.1879 1.05467 14.238 1.1687 14.2481 1.28989C14.2582 1.41107 14.2278 1.53218 14.1618 1.63322L7.8724 8.08601C7.82462 8.13697 7.76747 8.1777 7.70425 8.20585C7.64102 8.234 7.57299 8.24901 7.50408 8.25Z" fill="#000000"/>
</svg>
