<svg width="40" height="30" viewBox="0 0 40 30" fill="none" xmlns="http://www.w3.org/2000/svg">
<path d="M0 6C0 2.68629 2.68629 0 6 0H34C37.3137 0 40 2.68629 40 6V24C40 27.3137 37.3137 30 34 30H6C2.68629 30 0 27.3137 0 24V6Z" fill="#9ADE99"/>
<path d="M8 19H9.33446V14.3333L12.3612 19H13.6956V12H12.3612V16.6667L9.33446 12H8V19Z" fill="white"/>
<path d="M16.2755 19H20.8204V17.7653H17.5906V15.9667H20.2402V14.7319H17.5906V13.2347H20.8204V12H16.2755V19Z" fill="white"/>
<path d="M24.6701 19H25.9659L27.3101 14.275L28.6639 19H29.9596L32 12H30.6172L29.3021 16.8125L27.9966 12L26.6138 12.0097L25.318 16.8125L24.0126 12H22.6298L24.6701 19Z" fill="white"/>
</svg>
