<svg width="40" height="30" viewBox="0 0 40 30" fill="none" xmlns="http://www.w3.org/2000/svg">
<path d="M0 6C0 2.68629 2.68629 0 6 0H34C37.3137 0 40 2.68629 40 6V24C40 27.3137 37.3137 30 34 30H6C2.68629 30 0 27.3137 0 24V6Z" fill="#9ADE99"/>
<path d="M8 24H9.33446V19.3333L12.3612 24H13.6956V17H12.3612V21.6667L9.33446 17H8V24Z" fill="white"/>
<path d="M16.2755 24H20.8204V22.7653H17.5906V20.9667H20.2402V19.7319H17.5906V18.2347H20.8204V17H16.2755V24Z" fill="white"/>
<path d="M24.6701 24H25.9659L27.3101 19.275L28.6639 24H29.9596L32 17H30.6172L29.3021 21.8125L27.9966 17L26.6138 17.0097L25.318 21.8125L24.0126 17H22.6298L24.6701 24Z" fill="white"/>
</svg>
