<svg viewBox="0 0 30 30" fill="none" xmlns="http://www.w3.org/2000/svg">
<path d="M22.1196 27C22.1191 27 22.1191 27 22.1191 27C21.2976 27 20.4818 26.7879 19.76 26.3866L18.1029 25.4661C12.3967 22.2963 7.70507 17.6048 4.53542 11.8986L3.61481 10.2414C2.9832 9.10543 2.83249 7.79139 3.18935 6.54149C3.54653 5.29159 4.36882 4.25553 5.50518 3.62433L5.77795 3.4728C6.33475 3.16328 6.96397 3 7.59757 3C8.96135 3 10.2198 3.73986 10.8813 4.93117L12.1493 7.21349C12.8447 8.46538 12.4277 10.0227 11.2001 10.7594L9.44267 11.8141C11.3884 15.5286 14.4724 18.6126 18.1865 20.5587L19.242 18.8014C19.7163 18.0105 20.5844 17.5196 21.5073 17.5196C21.9535 17.5196 22.3963 17.6344 22.7879 17.8522L25.0702 19.1202C26.8793 20.1248 27.5336 22.4144 26.5286 24.2235L26.3771 24.4963C25.5188 26.0407 23.8874 27 22.1196 27ZM7.59757 3.82759C7.10416 3.82759 6.61398 3.95487 6.17958 4.19611L5.90681 4.34764C4.96411 4.87175 4.2816 5.7317 3.98499 6.76899C3.6888 7.80629 3.81401 8.89655 4.33812 9.83967L5.25864 11.4968C8.35357 17.0676 12.9336 21.6477 18.5045 24.7427L20.1617 25.6632C20.7614 25.9962 21.4382 26.1724 22.1191 26.1724C23.5868 26.1724 24.9414 25.3764 25.6538 24.0946L25.8053 23.8218C26.5884 22.4115 26.0785 20.6267 24.6686 19.8435L22.3863 18.5755C21.5506 18.112 20.4397 18.4143 19.9516 19.2273L18.6981 21.3165C18.5874 21.5019 18.353 21.5714 18.1583 21.4736C14.0182 19.4034 10.598 15.984 8.52819 11.8444C8.43161 11.6513 8.49989 11.4161 8.68535 11.3046L10.7741 10.0499C11.6171 9.54397 11.9032 8.47473 11.4259 7.6152L10.1579 5.33288C9.64229 4.40425 8.66118 3.82759 7.59757 3.82759Z" fill="#1DA7AF"/>
</svg>
