<svg width="20" height="21" viewBox="0 0 20 21" fill="none" xmlns="http://www.w3.org/2000/svg">
<path d="M15.3395 19.4998C15.3392 19.4998 15.3392 19.4998 15.3392 19.4998C14.7231 19.4998 14.1112 19.3407 13.5699 19.0398L12.327 18.3494C8.04743 15.9721 4.52877 12.4535 2.15155 8.1739L1.4611 6.93098C0.987397 6.07903 0.874371 5.09351 1.14201 4.15609C1.4099 3.21867 2.02661 2.44164 2.87887 1.96824L3.08345 1.8546C3.50104 1.62246 3.97295 1.5 4.44814 1.5C5.47097 1.5 6.41478 2.05489 6.91089 2.94837L7.86191 4.66009C8.38347 5.599 8.0707 6.767 7.14998 7.31953L5.83196 8.11053C7.29125 10.8963 9.60423 13.2093 12.3897 14.6689L13.1814 13.3509C13.5371 12.7578 14.1882 12.3896 14.8803 12.3896C15.215 12.3896 15.5471 12.4757 15.8408 12.639L17.5525 13.59C18.9093 14.3435 19.4 16.0607 18.6463 17.4175L18.5326 17.6221C17.8889 18.7803 16.6654 19.4998 15.3395 19.4998ZM4.44814 2.12068C4.07809 2.12068 3.71046 2.21614 3.38466 2.39707L3.18009 2.51072C2.47307 2.9038 1.96119 3.54875 1.73873 4.32672C1.51659 5.10468 1.6105 5.92237 2.00358 6.6297L2.69397 7.87256C5.01514 12.0506 8.45013 15.4856 12.6283 17.8069L13.8711 18.4972C14.3209 18.747 14.8285 18.8791 15.3392 18.8791C16.4399 18.8791 17.4559 18.2821 17.9902 17.3208L18.1038 17.1162C18.6912 16.0585 18.3087 14.7199 17.2513 14.1325L15.5396 13.1815C14.9128 12.8339 14.0797 13.0606 13.7136 13.6704L12.7735 15.2372C12.6905 15.3763 12.5147 15.4285 12.3686 15.3551C9.26359 13.8024 6.69843 11.2379 5.1461 8.13325C5.07367 7.98838 5.12488 7.81198 5.26397 7.72838L6.83051 6.78736C7.46274 6.40793 7.67731 5.60601 7.31937 4.96137L6.36835 3.24965C5.98167 2.55318 5.24585 2.12068 4.44814 2.12068Z" fill="black"/>
</svg>
