<svg width="20" height="20" viewBox="0 0 20 20" fill="none" xmlns="http://www.w3.org/2000/svg">
<path fill-rule="evenodd" clip-rule="evenodd" d="M9.94857 2C13.0162 2 15.541 4.32204 15.8642 7.32982L15.8639 7.3301C15.8841 7.53183 15.8948 7.73624 15.8948 7.94334C15.898 9.09778 15.563 10.2279 14.9311 11.194L10.7963 17.5415L10.7941 17.5452C10.7014 17.6854 10.5753 17.8003 10.4272 17.8797C10.2791 17.9591 10.1136 18.0004 9.94557 18C9.77752 17.9996 9.61222 17.9574 9.46452 17.8772C9.31683 17.7971 9.19137 17.6815 9.09942 17.5408L4.96454 11.1933L4.9784 11.2159C4.38855 10.3191 4.05242 9.27928 4.00565 8.20684C3.95888 7.13441 4.20322 6.06931 4.71276 5.1245C5.2223 4.17968 5.97804 3.39038 6.89984 2.84029C7.82163 2.29021 8.87512 1.99985 9.94857 2ZM9.9493 16.8383L14.0156 10.5958C14.619 9.66186 14.885 8.5497 14.7695 7.44379C14.6541 6.33787 14.1642 5.30462 13.3809 4.51536C12.5026 3.63703 11.2894 3.09354 9.9493 3.09354C8.60919 3.09354 7.39601 3.63703 6.51767 4.51536C5.73445 5.30462 5.2445 6.33787 5.12907 7.44379C5.01363 8.5497 5.27964 9.66186 5.883 10.5958L9.9493 16.8383ZM8.7334 6.13094C9.0933 5.89046 9.51643 5.7621 9.94929 5.7621C10.5295 5.76287 11.0857 5.9937 11.496 6.40396C11.9062 6.81422 12.1371 7.37044 12.1378 7.95064C12.1378 8.38349 12.0095 8.80662 11.769 9.16652C11.5285 9.52643 11.1867 9.80694 10.7868 9.97258C10.3869 10.1382 9.94686 10.1816 9.52232 10.0971C9.09779 10.0127 8.70783 9.80424 8.40176 9.49817C8.09568 9.1921 7.88725 8.80213 7.8028 8.3776C7.71836 7.95307 7.7617 7.51302 7.92734 7.11312C8.09299 6.71322 8.3735 6.37142 8.7334 6.13094ZM9.34134 8.86049C9.5213 8.98073 9.73286 9.04491 9.94929 9.04491C10.2394 9.04452 10.5175 8.92911 10.7226 8.72398C10.9278 8.51885 11.0432 8.24074 11.0436 7.95064C11.0436 7.73421 10.9794 7.52265 10.8591 7.3427C10.7389 7.16274 10.568 7.02249 10.368 6.93967C10.1681 6.85684 9.94807 6.83517 9.73581 6.8774C9.52354 6.91962 9.32856 7.02384 9.17552 7.17687C9.02249 7.32991 8.91827 7.52489 8.87604 7.73716C8.83382 7.94942 8.85549 8.16945 8.93831 8.3694C9.02114 8.56935 9.16139 8.74025 9.34134 8.86049Z" fill="#B3B3B3"/>
</svg>
