<svg width="20" height="20" viewBox="0 0 20 20" fill="none" xmlns="http://www.w3.org/2000/svg">
<path fill-rule="evenodd" clip-rule="evenodd" d="M1 8.39056C1 12.4838 4.29733 15.7811 8.39056 15.7811C10.2319 15.7811 11.9122 15.1138 13.2037 14.007L18.1961 18.9994L19 18.1956L14.0075 13.2031C15.1141 11.9117 15.7811 10.2316 15.7811 8.39056C15.7811 4.29733 12.4838 1 8.39056 1C4.29733 1 1 4.29733 1 8.39056ZM2.13701 8.39056C2.13701 4.92268 4.92268 2.13701 8.39056 2.13701C11.8584 2.13701 14.6441 4.92268 14.6441 8.39056C14.6441 11.8584 11.8584 14.6441 8.39056 14.6441C4.92268 14.6441 2.13701 11.8584 2.13701 8.39056Z" fill="black"/>
</svg>
