<svg width="120" height="120" viewBox="0 0 120 120" fill="none" xmlns="http://www.w3.org/2000/svg">
<path opacity="0.3" fill-rule="evenodd" clip-rule="evenodd" d="M25 15C16.7157 15 10 21.7157 10 30V75C10 83.2843 16.7157 90 25 90H45.0827L55.4437 105.628C57.5181 108.757 62.1721 108.569 63.9875 105.283L72.4311 90H95C103.284 90 110 83.2843 110 75V30C110 21.7157 103.284 15 95 15H25Z" fill="#1DA7AF"/>
<path opacity="0.3" fill-rule="evenodd" clip-rule="evenodd" d="M30 35H75C77.7614 35 80 37.2386 80 40C80 42.7614 77.7614 45 75 45H30C27.2386 45 25 42.7614 25 40C25 37.2386 27.2386 35 30 35ZM30 55H55C57.7614 55 60 57.2386 60 60C60 62.7614 57.7614 65 55 65H30C27.2386 65 25 62.7614 25 60C25 57.2386 27.2386 55 30 55Z" fill="#1DA7AF"/>
</svg>
