<svg width="121" height="120" viewBox="0 0 121 120" fill="none" xmlns="http://www.w3.org/2000/svg">
<path opacity="0.3" fill-rule="evenodd" clip-rule="evenodd" d="M60.5 110C88.1142 110 110.5 87.6142 110.5 60C110.5 32.3858 88.1142 10 60.5 10C32.8858 10 10.5 32.3858 10.5 60C10.5 87.6142 32.8858 110 60.5 110Z" fill="#1DA7AF"/>
<path d="M84.3448 39.0884C86.229 37.0697 89.3929 36.9606 91.4117 38.8447C93.4304 40.7289 93.5395 43.8929 91.6554 45.9116L56.6554 83.4116C54.8273 85.3702 51.7803 85.5399 49.7461 83.7963L32.2461 68.7963C30.1495 66.9992 29.9067 63.8427 31.7038 61.7461C33.5009 59.6494 36.6574 59.4066 38.754 61.2037L52.6151 73.0846L84.3448 39.0884Z" fill="#1DA7AF"/>
</svg>
