<svg width="36" height="25" viewBox="0 0 36 25" fill="none" xmlns="http://www.w3.org/2000/svg">
<path d="M7.71429 15.4286C8.70227 15.4284 9.65999 15.7695 10.4253 16.3943C11.1907 17.0191 11.7167 17.8891 11.9143 18.8571H24V1.71429H5.14286C4.23354 1.71429 3.36147 2.07551 2.71849 2.71849C2.07551 3.36147 1.71429 4.23354 1.71429 5.14286V18.8571H3.51429C3.71188 17.8891 4.23787 17.0191 5.00323 16.3943C5.76858 15.7695 6.7263 15.4284 7.71429 15.4286ZM7.71429 24C6.7263 24.0002 5.76858 23.659 5.00323 23.0343C4.23787 22.4095 3.71188 21.5395 3.51429 20.5714H0V5.14286C0 3.77889 0.541835 2.47078 1.50631 1.50631C2.47078 0.541835 3.77889 0 5.14286 0H24C24.4547 0 24.8907 0.180612 25.2122 0.502103C25.5337 0.823594 25.7143 1.25963 25.7143 1.71429V5.14286H30.8571L36 11.9674V20.5714H32.4857C32.289 21.5402 31.7634 22.4113 30.9979 23.0369C30.2325 23.6625 29.2743 24.0043 28.2857 24.0043C27.2971 24.0043 26.3389 23.6625 25.5735 23.0369C24.8081 22.4113 24.2824 21.5402 24.0857 20.5714H11.9143C11.7167 21.5395 11.1907 22.4095 10.4253 23.0343C9.65999 23.659 8.70227 24.0002 7.71429 24ZM7.71429 17.1429C7.0323 17.1429 6.37825 17.4138 5.89601 17.896C5.41377 18.3782 5.14286 19.0323 5.14286 19.7143C5.14286 20.3963 5.41377 21.0503 5.89601 21.5326C6.37825 22.0148 7.0323 22.2857 7.71429 22.2857C8.39627 22.2857 9.05032 22.0148 9.53256 21.5326C10.0148 21.0503 10.2857 20.3963 10.2857 19.7143C10.2857 19.0323 10.0148 18.3782 9.53256 17.896C9.05032 17.4138 8.39627 17.1429 7.71429 17.1429ZM28.2857 15.4286C29.2737 15.4284 30.2314 15.7695 30.9968 16.3943C31.7621 17.0191 32.2881 17.8891 32.4857 18.8571H34.2857V12.5417L33.8777 12H25.7143V16.2857C26.4555 15.7282 27.3582 15.4273 28.2857 15.4286ZM28.2857 17.1429C27.6037 17.1429 26.9497 17.4138 26.4674 17.896C25.9852 18.3782 25.7143 19.0323 25.7143 19.7143C25.7143 20.3963 25.9852 21.0503 26.4674 21.5326C26.9497 22.0148 27.6037 22.2857 28.2857 22.2857C28.9677 22.2857 29.6218 22.0148 30.104 21.5326C30.5862 21.0503 30.8571 20.3963 30.8571 19.7143C30.8571 19.0323 30.5862 18.3782 30.104 17.896C29.6218 17.4138 28.9677 17.1429 28.2857 17.1429ZM25.7143 6.85714V10.2857H32.5869L30 6.85714H25.7143Z" fill="black"/>
</svg>
