<svg width="30" height="30" viewBox="0 0 30 30" fill="none" xmlns="http://www.w3.org/2000/svg">
<path fill-rule="evenodd" clip-rule="evenodd" d="M25.034 23.5214C23.5251 21.1196 21.2161 19.3682 18.5682 18.5263C19.9514 17.4529 20.8571 15.7946 20.8571 13.9139C20.8571 10.6846 18.2311 8.05674 15 8.05674C11.7707 8.05674 9.14288 10.6846 9.14288 13.9139C9.14288 15.7946 10.0486 17.4547 11.4318 18.5263C8.78387 19.3682 6.47491 21.1196 4.96598 23.5214C3.01057 21.2216 1.82238 18.2493 1.82238 15.0018C1.82238 7.73418 7.73418 1.82238 15 1.82238C22.2658 1.82238 28.1776 7.73418 28.1776 15.0018C28.1776 18.2493 26.9894 21.2216 25.034 23.5214ZM10.9653 13.9139C10.9653 11.6887 12.7749 9.87912 15 9.87912C17.2251 9.87912 19.0347 11.6887 19.0347 13.9139C19.0347 16.139 17.2251 17.9486 15 17.9486C12.7749 17.9486 10.9653 16.139 10.9653 13.9139ZM15 28.1776C11.6395 28.1776 8.57976 26.9038 6.25076 24.8263C6.27263 24.7971 6.30908 24.7825 6.32912 24.7479C8.12599 21.679 11.4464 19.771 15 19.771C18.5518 19.771 21.874 21.679 23.6691 24.7461C23.6891 24.7807 23.7201 24.8008 23.7438 24.8317C21.4148 26.9056 18.3568 28.1776 15 28.1776ZM15 0C6.73004 0 0 6.73004 0 15.0018C0 23.2718 6.73004 30 15 30C23.27 30 30 23.2718 30 15.0018C30 6.73004 23.27 0 15 0Z" fill="black"/>
</svg>
